<svg xmlns="http://www.w3.org/2000/svg" width="520" height="520"><circle cx="435" cy="300.002" r="32.5" fill="#f88f19"/><path fill="#f88f19" d="M75 332.502c12.43 0 22.5 10.07 22.5 22.5s-10.07 22.5-22.5 22.5c-12.42 0-22.5-10.07-22.5-22.5s10.08-22.5 22.5-22.5z"/><path fill="#079cff" d="M312.5 372.502v110l-64.97-44.79zM218.03 437.412l-63.5 45.09v-110z"/><path fill="#079cff" d="M312.5 482.502H154.53l63.5-45.09 14.76 15.09 14.74-14.79z"/><path fill="#5cbeff" d="m312.5 372.502-64.97 65.21-14.74 14.79-14.76-15.09-63.5-64.91H277.5z"/><path fill="#ecf0f1" d="M233.83 37.512c50.56 1.16 91.32 67.87 91.32 149.99 0 82.19-40.83 148.95-91.45 149.99-.4.01-.8.01-1.2.01 21.93 0 39.71-67.16 39.71-150 0-82.839-17.78-150-39.71-150 .44 0 .89 0 1.33.01z"/><path fill="#ecf0f1" d="M232.5 37.502c-21.93 0-39.7 67.161-39.7 150 0 82.84 17.77 150 39.7 150-.44 0-.89 0-1.33-.01-50.55-1.16-91.31-67.87-91.31-149.99 0-82.189 40.83-148.95 91.44-149.99.4-.01.8-.01 1.2-.01z"/><path fill="#d94556" d="M233.7 337.492c50.62-1.04 91.45-67.8 91.45-149.99 0-82.12-40.761-148.83-91.32-149.99 82.24.71 148.67 67.59 148.67 149.99 0 67.161-44.14 124.01-105 143.13-13.84 4.35-28.55 6.75-43.8 6.86z"/><path fill="#d94556" d="M192.8 187.502c0-82.839 17.77-150 39.7-150 21.93 0 39.71 67.161 39.71 150 0 82.84-17.78 150-39.71 150s-39.7-67.16-39.7-150z"/><path fill="#d94556" d="M139.86 187.502c0 82.12 40.76 148.83 91.31 149.99-14.46-.12-28.43-2.29-41.64-6.24-61.9-18.47-107.03-75.839-107.03-143.75 0-82.439 66.51-149.35 148.8-149.99-50.61 1.04-91.44 67.801-91.44 149.99z"/><path d="M460 382.502c4.15 0 7.5 3.36 7.5 7.5s-3.35 7.5-7.5 7.5c-4.14 0-7.5-3.36-7.5-7.5s3.36-7.5 7.5-7.5zm-85-325c4.15 0 7.5 3.36 7.5 7.5 0 4.14-3.35 7.5-7.5 7.5-4.14 0-7.5-3.36-7.5-7.5 0-4.14 3.36-7.5 7.5-7.5zm-10 260c4.15 0 7.5 3.36 7.5 7.5s-3.35 7.5-7.5 7.5c-4.14 0-7.5-3.36-7.5-7.5s3.36-7.5 7.5-7.5zm-5 110c4.15 0 7.5 3.36 7.5 7.5s-3.35 7.5-7.5 7.5c-4.14 0-7.5-3.36-7.5-7.5s3.36-7.5 7.5-7.5zM86.24 47.603c4.08.68 6.84 4.55 6.16 8.63a7.503 7.503 0 0 1-14.8-2.46c.69-4.09 4.55-6.851 8.64-6.17zm0 389.999c4.08.681 6.84 4.551 6.16 8.631a7.497 7.497 0 0 1-8.63 6.17c-4.09-.681-6.85-4.551-6.16-8.631a7.497 7.497 0 0 1 8.63-6.17zm-20-170c4.08.681 6.84 4.551 6.16 8.631a7.497 7.497 0 0 1-8.63 6.17 7.504 7.504 0 0 1-6.17-8.631c.69-4.09 4.55-6.85 8.64-6.17zm164.933 74.89-.117-.001c-26.227-.603-50.649-17.305-68.766-47.032-17.688-29.022-27.429-67.362-27.429-107.957 0-40.632 9.757-78.999 27.473-108.031 18.15-29.742 42.606-46.418 68.864-46.958 2.73-.059 5.045 2.136 5.102 4.896a5 5 0 0 1-4.896 5.102c-47.72.98-86.542 66.023-86.542 144.991 0 78.854 38.77 143.897 86.425 144.991a5 5 0 0 1-.114 9.999z"/><path d="M233.698 342.492a5 5 0 0 1-.101-9.999c47.726-.98 86.553-66.023 86.553-144.991 0-78.855-38.774-143.897-86.435-144.991a5 5 0 0 1-4.884-5.114c.063-2.76 2.385-4.943 5.113-4.884 26.232.602 50.657 17.305 68.775 47.032 17.688 29.022 27.431 67.361 27.431 107.957 0 40.635-9.757 79-27.475 108.031-18.15 29.742-42.61 46.418-68.873 46.958l-.104.001z"/><path d="M232.5 342.502c-13.277 0-24.656-16.479-32.907-47.656-7.604-28.735-11.792-66.857-11.792-107.344 0-40.486 4.188-78.609 11.792-107.344 8.251-31.177 19.63-47.656 32.907-47.656 13.278 0 24.658 16.479 32.912 47.655 7.607 28.738 11.798 66.86 11.798 107.344 0 40.485-4.19 78.606-11.798 107.345-8.254 31.177-19.634 47.656-32.912 47.656zm0-300c-14.489 0-34.7 55.164-34.7 145 0 89.837 20.21 145 34.7 145 14.494 0 34.71-55.163 34.71-145 0-89.836-20.216-145-34.71-145zm80 445H154.53a5 5 0 0 1-5-5v-110a5 5 0 1 1 10 0v105H307.5v-105a5 5 0 1 1 10 0v110a5 5 0 0 1-5 5z"/><path d="M277.5 377.502a5 5 0 0 1-5-5v-41.87a5 5 0 1 1 10 0v41.87a5 5 0 0 1-5 5zm-87.97 0a5 5 0 0 1-5-5v-41.25c0-2.762 2.239-5.005 5-5.005s5 2.233 5 4.995v41.26a5 5 0 0 1-5 5zm122.966 110a4.971 4.971 0 0 1-2.834-.884l-64.97-44.79a5 5 0 1 1 5.676-8.232l64.97 44.79a5 5 0 0 1-2.842 9.116zm-157.961 0a5 5 0 0 1-2.899-9.077l63.5-45.09a5 5 0 0 1 5.79 8.155l-63.5 45.09a4.991 4.991 0 0 1-2.891.922z"/><path d="M232.79 457.502h-.023a4.999 4.999 0 0 1-3.551-1.504l-78.26-80a5 5 0 0 1 3.574-8.497H312.5a5 5 0 0 1 3.542 8.529l-79.71 80a4.997 4.997 0 0 1-3.542 1.472zm-66.373-80 66.407 67.884 67.637-67.884H166.417z"/><path d="M265.46 397.502h-65.34a5 5 0 1 1 0-10h65.34a5 5 0 1 1 0 10zm-16.34 15h-32.67a5 5 0 1 1 0-10h32.67a5 5 0 1 1 0 10zm-16.62-70c-.477 0-.964 0-1.44-.011a154.496 154.496 0 0 1-42.962-6.449c-31.306-9.341-59.463-28.912-79.282-55.108C88.329 253.855 77.5 221.547 77.5 187.502c0-41.185 15.979-79.964 44.993-109.192 28.999-29.213 67.627-45.477 108.769-45.797a59.82 59.82 0 0 1 2.68.001c41.049.354 79.647 16.634 108.615 45.839 28.982 29.222 44.944 67.985 44.944 109.149 0 33.656-10.605 65.666-30.669 92.569-19.395 26.005-47.036 45.655-77.833 55.331a154.491 154.491 0 0 1-45.262 7.09c-.356.009-.796.01-1.237.01zm0-10c.357-.001.719.001 1.078-.008 14.515-.106 28.759-2.337 42.422-6.632 60.711-19.073 101.5-74.675 101.5-138.36 0-79.264-64.469-144.306-143.713-144.99-.471-.01-.878-.006-1.287-.01-.356.003-.718 0-1.078.009-79.396.618-143.922 65.66-143.922 144.991 0 63.641 42.544 120.782 103.46 138.959 13.004 3.889 26.546 5.918 40.252 6.031.473.011.893.014 1.288.01zm235-230h-85a5 5 0 0 1 0-10h85a5 5 0 0 1 0 10zm0 25h-75a5 5 0 0 1 0-10h75a5 5 0 0 1 0 10zm0 25h-65a5 5 0 0 1 0-10h65a5 5 0 0 1 0 10zm0 25h-55a5 5 0 0 1 0-10h55a5 5 0 0 1 0 10zm0 25h-45a5 5 0 0 1 0-10h45a5 5 0 0 1 0 10zm-392.5 180c-15.164 0-27.5-12.337-27.5-27.5s12.336-27.5 27.5-27.5 27.5 12.337 27.5 27.5-12.336 27.5-27.5 27.5zm0-45c-9.649 0-17.5 7.851-17.5 17.5s7.851 17.5 17.5 17.5 17.5-7.851 17.5-17.5-7.851-17.5-17.5-17.5zm360 0c-20.678 0-37.5-16.822-37.5-37.5s16.822-37.5 37.5-37.5 37.5 16.822 37.5 37.5-16.822 37.5-37.5 37.5zm0-65c-15.164 0-27.5 12.337-27.5 27.5s12.336 27.5 27.5 27.5 27.5-12.337 27.5-27.5-12.336-27.5-27.5-27.5z"/><circle cx="435" cy="300.002" r="32.5" fill="#f88f19"/><path fill="#f88f19" d="M75 332.502c12.43 0 22.5 10.07 22.5 22.5s-10.07 22.5-22.5 22.5c-12.42 0-22.5-10.07-22.5-22.5s10.08-22.5 22.5-22.5z"/><path fill="#079cff" d="M312.5 372.502v110l-64.97-44.79zM218.03 437.412l-63.5 45.09v-110z"/><path fill="#079cff" d="M312.5 482.502H154.53l63.5-45.09 14.76 15.09 14.74-14.79z"/><path fill="#5cbeff" d="m312.5 372.502-64.97 65.21-14.74 14.79-14.76-15.09-63.5-64.91H277.5z"/><path fill="#ecf0f1" d="M233.83 37.512c50.56 1.16 91.32 67.87 91.32 149.99 0 82.19-40.83 148.95-91.45 149.99-.4.01-.8.01-1.2.01 21.93 0 39.71-67.16 39.71-150 0-82.839-17.78-150-39.71-150 .44 0 .89 0 1.33.01z"/><path fill="#ecf0f1" d="M232.5 37.502c-21.93 0-39.7 67.161-39.7 150 0 82.84 17.77 150 39.7 150-.44 0-.89 0-1.33-.01-50.55-1.16-91.31-67.87-91.31-149.99 0-82.189 40.83-148.95 91.44-149.99.4-.01.8-.01 1.2-.01z"/><path fill="#d94556" d="M233.7 337.492c50.62-1.04 91.45-67.8 91.45-149.99 0-82.12-40.761-148.83-91.32-149.99 82.24.71 148.67 67.59 148.67 149.99 0 67.161-44.14 124.01-105 143.13-13.84 4.35-28.55 6.75-43.8 6.86z"/><path fill="#d94556" d="M192.8 187.502c0-82.839 17.77-150 39.7-150 21.93 0 39.71 67.161 39.71 150 0 82.84-17.78 150-39.71 150s-39.7-67.16-39.7-150z"/><path fill="#d94556" d="M139.86 187.502c0 82.12 40.76 148.83 91.31 149.99-14.46-.12-28.43-2.29-41.64-6.24-61.9-18.47-107.03-75.839-107.03-143.75 0-82.439 66.51-149.35 148.8-149.99-50.61 1.04-91.44 67.801-91.44 149.99z"/><path d="M460 382.502c4.15 0 7.5 3.36 7.5 7.5s-3.35 7.5-7.5 7.5c-4.14 0-7.5-3.36-7.5-7.5s3.36-7.5 7.5-7.5zm-85-325c4.15 0 7.5 3.36 7.5 7.5 0 4.14-3.35 7.5-7.5 7.5-4.14 0-7.5-3.36-7.5-7.5 0-4.14 3.36-7.5 7.5-7.5zm-10 260c4.15 0 7.5 3.36 7.5 7.5s-3.35 7.5-7.5 7.5c-4.14 0-7.5-3.36-7.5-7.5s3.36-7.5 7.5-7.5zm-5 110c4.15 0 7.5 3.36 7.5 7.5s-3.35 7.5-7.5 7.5c-4.14 0-7.5-3.36-7.5-7.5s3.36-7.5 7.5-7.5zM86.24 47.603c4.08.68 6.84 4.55 6.16 8.63a7.503 7.503 0 0 1-14.8-2.46c.69-4.09 4.55-6.851 8.64-6.17zm0 389.999c4.08.681 6.84 4.551 6.16 8.631a7.497 7.497 0 0 1-8.63 6.17c-4.09-.681-6.85-4.551-6.16-8.631a7.497 7.497 0 0 1 8.63-6.17zm-20-170c4.08.681 6.84 4.551 6.16 8.631a7.497 7.497 0 0 1-8.63 6.17 7.504 7.504 0 0 1-6.17-8.631c.69-4.09 4.55-6.85 8.64-6.17zm164.933 74.89-.117-.001c-26.227-.603-50.649-17.305-68.766-47.032-17.688-29.022-27.429-67.362-27.429-107.957 0-40.632 9.757-78.999 27.473-108.031 18.15-29.742 42.606-46.418 68.864-46.958 2.73-.059 5.045 2.136 5.102 4.896a5 5 0 0 1-4.896 5.102c-47.72.98-86.542 66.023-86.542 144.991 0 78.854 38.77 143.897 86.425 144.991a5 5 0 0 1-.114 9.999z"/><path d="M233.698 342.492a5 5 0 0 1-.101-9.999c47.726-.98 86.553-66.023 86.553-144.991 0-78.855-38.774-143.897-86.435-144.991a5 5 0 0 1-4.884-5.114c.063-2.76 2.385-4.943 5.113-4.884 26.232.602 50.657 17.305 68.775 47.032 17.688 29.022 27.431 67.361 27.431 107.957 0 40.635-9.757 79-27.475 108.031-18.15 29.742-42.61 46.418-68.873 46.958l-.104.001z"/><path d="M232.5 342.502c-13.277 0-24.656-16.479-32.907-47.656-7.604-28.735-11.792-66.857-11.792-107.344 0-40.486 4.188-78.609 11.792-107.344 8.251-31.177 19.63-47.656 32.907-47.656 13.278 0 24.658 16.479 32.912 47.655 7.607 28.738 11.798 66.86 11.798 107.344 0 40.485-4.19 78.606-11.798 107.345-8.254 31.177-19.634 47.656-32.912 47.656zm0-300c-14.489 0-34.7 55.164-34.7 145 0 89.837 20.21 145 34.7 145 14.494 0 34.71-55.163 34.71-145 0-89.836-20.216-145-34.71-145zm80 445H154.53a5 5 0 0 1-5-5v-110a5 5 0 1 1 10 0v105H307.5v-105a5 5 0 1 1 10 0v110a5 5 0 0 1-5 5z"/><path d="M277.5 377.502a5 5 0 0 1-5-5v-41.87a5 5 0 1 1 10 0v41.87a5 5 0 0 1-5 5zm-87.97 0a5 5 0 0 1-5-5v-41.25c0-2.762 2.239-5.005 5-5.005s5 2.233 5 4.995v41.26a5 5 0 0 1-5 5zm122.966 110a4.971 4.971 0 0 1-2.834-.884l-64.97-44.79a5 5 0 1 1 5.676-8.232l64.97 44.79a5 5 0 0 1-2.842 9.116zm-157.961 0a5 5 0 0 1-2.899-9.077l63.5-45.09a5 5 0 0 1 5.79 8.155l-63.5 45.09a4.991 4.991 0 0 1-2.891.922z"/><path d="M232.79 457.502h-.023a4.999 4.999 0 0 1-3.551-1.504l-78.26-80a5 5 0 0 1 3.574-8.497H312.5a5 5 0 0 1 3.542 8.529l-79.71 80a4.997 4.997 0 0 1-3.542 1.472zm-66.373-80 66.407 67.884 67.637-67.884H166.417z"/><path d="M265.46 397.502h-65.34a5 5 0 1 1 0-10h65.34a5 5 0 1 1 0 10zm-16.34 15h-32.67a5 5 0 1 1 0-10h32.67a5 5 0 1 1 0 10zm-16.62-70c-.477 0-.964 0-1.44-.011a154.496 154.496 0 0 1-42.962-6.449c-31.306-9.341-59.463-28.912-79.282-55.108C88.329 253.855 77.5 221.547 77.5 187.502c0-41.185 15.979-79.964 44.993-109.192 28.999-29.213 67.627-45.477 108.769-45.797a59.82 59.82 0 0 1 2.68.001c41.049.354 79.647 16.634 108.615 45.839 28.982 29.222 44.944 67.985 44.944 109.149 0 33.656-10.605 65.666-30.669 92.569-19.395 26.005-47.036 45.655-77.833 55.331a154.491 154.491 0 0 1-45.262 7.09c-.356.009-.796.01-1.237.01zm0-10c.357-.001.719.001 1.078-.008 14.515-.106 28.759-2.337 42.422-6.632 60.711-19.073 101.5-74.675 101.5-138.36 0-79.264-64.469-144.306-143.713-144.99-.471-.01-.878-.006-1.287-.01-.356.003-.718 0-1.078.009-79.396.618-143.922 65.66-143.922 144.991 0 63.641 42.544 120.782 103.46 138.959 13.004 3.889 26.546 5.918 40.252 6.031.473.011.893.014 1.288.01zm235-230h-85a5 5 0 0 1 0-10h85a5 5 0 0 1 0 10zm0 25h-75a5 5 0 0 1 0-10h75a5 5 0 0 1 0 10zm0 25h-65a5 5 0 0 1 0-10h65a5 5 0 0 1 0 10zm0 25h-55a5 5 0 0 1 0-10h55a5 5 0 0 1 0 10zm0 25h-45a5 5 0 0 1 0-10h45a5 5 0 0 1 0 10zm-392.5 180c-15.164 0-27.5-12.337-27.5-27.5s12.336-27.5 27.5-27.5 27.5 12.337 27.5 27.5-12.336 27.5-27.5 27.5zm0-45c-9.649 0-17.5 7.851-17.5 17.5s7.851 17.5 17.5 17.5 17.5-7.851 17.5-17.5-7.851-17.5-17.5-17.5zm360 0c-20.678 0-37.5-16.822-37.5-37.5s16.822-37.5 37.5-37.5 37.5 16.822 37.5 37.5-16.822 37.5-37.5 37.5zm0-65c-15.164 0-27.5 12.337-27.5 27.5s12.336 27.5 27.5 27.5 27.5-12.337 27.5-27.5-12.336-27.5-27.5-27.5z"/></svg>